# xmcd CD database file
#
# Track frame offsets:
#	150
#	39725
#	60641
#	83901
#	117487
#	149854
#	173904
#	204095
#	242370
#	271379
#	295418
#
# Disc length: 4248 seconds
#
# Revision: 0
# Processed by: cddbd v1.5.2PL0 Copyright (c) Steve Scherf et al.
# Submitted via: CDex 1.70beta2
#
DISCID=a610960b
DTITLE=SOFT MACHINE Lagacy - STEAM
DYEAR=2007
DGENRE=Jazz
TTITLE0=Footloose
TTITLE1=The Steamer 
TTITLE2=The Big Man
TTITLE3=Chloe and The Pirates
TTITLE4=In The Back Room
TTITLE5=The Last Day
TTITLE6=Firefly
TTITLE7=So English
TTITLE8=Dave Acto
TTITLE9=Anything To Anywhere
TTITLE10=moreover
EXTD=YEAR: 2007
EXTT0=
EXTT1=
EXTT2=
EXTT3=
EXTT4=
EXTT5=
EXTT6=
EXTT7=
EXTT8=
EXTT9=
EXTT10=
PLAYORDER=
